<?xml version="1.0" encoding="UTF-8"?>
<svg id="Capa_1" data-name="Capa 1" xmlns="http://www.w3.org/2000/svg" viewBox="0 0 522.64 378.88">
  <defs>
    <style>
      .cls-1 {
        fill: #1c91c0;
      }

      .cls-1, .cls-2, .cls-3, .cls-4, .cls-5, .cls-6, .cls-7, .cls-8 {
        stroke-width: 0px;
      }

      .cls-2 {
        fill: #005273;
      }

      .cls-3 {
        fill: #54b6da;
      }

      .cls-4 {
        fill: #275b7d;
      }

      .cls-5 {
        fill: #bbbdc0;
      }

      .cls-6 {
        fill: #99cfe7;
      }

      .cls-7 {
        fill: #0076a2;
      }

      .cls-8 {
        fill: #005a7c;
      }
    </style>
  </defs>
  <rect class="cls-4" x="457.71" y="79.31" width="42.75" height="277.71" rx="3.54" ry="3.54"/>
  <path class="cls-1" d="m511.71,58.1H10.93c-6.04,0-10.93,4.89-10.93,10.93v298.93c0,6.04,4.89,10.93,10.93,10.93h500.79c6.04,0,10.93-4.89,10.93-10.93V69.03c0-6.04-4.89-10.93-10.93-10.93Zm-75.78,287.13H32.48V90.26h403.45v254.97Z"/>
  <path class="cls-2" d="m440.97,78.95H27.4c-3.53,0-6.39,2.86-6.39,6.39v265.29c0,3.53,2.86,6.39,6.39,6.39h413.57c3.53,0,6.39-2.86,6.39-6.39V85.35c0-3.53-2.86-6.39-6.39-6.39Zm-5.04,266.27H32.48V90.26h403.45v254.97Z"/>
  <g>
    <path class="cls-5" d="m241.79,43.36h0c-1.58-1.25-1.83-3.51-.56-5.06L271.48,1.34c1.27-1.55,3.57-1.79,5.15-.55h0c1.58,1.25,1.83,3.51.56,5.06l-30.25,36.95c-1.27,1.55-3.57,1.79-5.15.55Z"/>
    <path class="cls-5" d="m225.06,43.36h0c1.58-1.25,1.83-3.51.56-5.06L195.37,1.34c-1.27-1.55-3.57-1.79-5.15-.55h0c-1.58,1.25-1.83,3.51-.56,5.06l30.25,36.95c1.27,1.55,3.57,1.79,5.15.55Z"/>
    <path class="cls-8" d="m251.68,55.52c0-9.81-8.09-17.76-18.07-17.76s-18.07,7.95-18.07,17.76h36.13Z"/>
    <path class="cls-6" d="m165.07,48.06h136.53c3.29,0,5.96,2.67,5.96,5.96v4.08h-148.45v-4.08c0-3.29,2.67-5.96,5.96-5.96Z"/>
  </g>
  <g>
    <circle class="cls-6" cx="479.77" cy="338.22" r="12.74"/>
    <path class="cls-3" d="m488.55,347.45c5.1-5.1,5.2-13.26.22-18.24-4.97-4.97-13.14-4.87-18.24.22l18.01,18.01Z"/>
  </g>
  <g>
    <rect class="cls-7" x="457.85" y="314.61" width="43.01" height="3.88"/>
    <rect class="cls-7" x="457.85" y="305.61" width="43.01" height="3.88"/>
    <rect class="cls-7" x="457.85" y="296.61" width="43.01" height="3.88"/>
    <rect class="cls-7" x="457.85" y="287.61" width="43.01" height="3.88"/>
    <rect class="cls-7" x="457.85" y="278.61" width="43.01" height="3.88"/>
    <rect class="cls-7" x="457.85" y="269.61" width="43.01" height="3.88"/>
    <rect class="cls-7" x="457.85" y="260.61" width="43.01" height="3.88"/>
    <rect class="cls-7" x="457.85" y="251.61" width="43.01" height="3.88"/>
    <rect class="cls-7" x="457.85" y="242.61" width="43.01" height="3.88"/>
    <rect class="cls-7" x="457.85" y="233.52" width="43.01" height="3.88"/>
    <rect class="cls-7" x="457.85" y="224.61" width="43.01" height="3.88"/>
    <rect class="cls-7" x="457.85" y="215.61" width="43.01" height="3.88"/>
  </g>
  <g>
    <circle class="cls-6" cx="469.02" cy="90.95" r="2.98"/>
    <circle class="cls-6" cx="479.05" cy="90.95" r="2.98"/>
    <circle class="cls-6" cx="489.16" cy="90.95" r="2.98"/>
    <circle class="cls-6" cx="469.02" cy="100.8" r="2.98"/>
    <circle class="cls-6" cx="479.05" cy="100.8" r="2.98"/>
    <circle class="cls-6" cx="489.16" cy="100.8" r="2.98"/>
    <circle class="cls-6" cx="469.02" cy="110.96" r="2.98"/>
    <circle class="cls-6" cx="479.05" cy="110.96" r="2.98"/>
    <circle class="cls-6" cx="489.16" cy="110.96" r="2.98"/>
  </g>
</svg>